<?xml version="1.0" standalone="no"?>
<!DOCTYPE svg PUBLIC "-//W3C//DTD SVG 20010904//EN"
 "http://www.w3.org/TR/2001/REC-SVG-20010904/DTD/svg10.dtd">
<svg version="1.0" xmlns="http://www.w3.org/2000/svg"
 width="1389.000000pt" height="1389.000000pt" viewBox="0 0 1389.000000 1389.000000"
 preserveAspectRatio="xMidYMid meet">
<metadata>
Created by potrace 1.14, written by Peter Selinger 2001-2017
</metadata>
<g transform="translate(0.000000,1389.000000) scale(0.100000,-0.100000)"
fill="#000000" stroke="none">
<path d="M6040 11631 c-14 -4 -54 -6 -90 -6 -36 1 -82 -4 -104 -12 -21 -7 -43
-10 -49 -6 -17 10 -92 6 -116 -7 -12 -6 -25 -8 -30 -5 -5 3 -22 0 -38 -6 -15
-6 -66 -12 -113 -15 -141 -6 -159 -9 -174 -29 -9 -12 -21 -16 -40 -13 -36 7
-121 -18 -171 -51 -22 -15 -47 -26 -55 -26 -8 0 -14 -6 -12 -14 2 -8 -3 -11
-13 -8 -8 4 -15 2 -15 -3 0 -5 -10 -12 -22 -15 -29 -9 -78 -54 -78 -72 0 -7
-8 -13 -19 -13 -30 0 -121 -99 -121 -132 0 -8 -13 -27 -29 -42 -17 -16 -34
-47 -41 -74 -7 -31 -25 -61 -50 -87 -21 -22 -48 -61 -60 -87 -32 -69 -40 -73
-108 -55 -31 9 -73 16 -92 15 -19 0 -48 5 -65 12 -16 7 -34 14 -38 14 -5 1
-16 11 -25 22 -20 26 -53 35 -76 22 -13 -7 -23 -5 -36 7 -12 11 -26 14 -40 10
-12 -4 -30 -1 -43 8 -30 19 -184 15 -237 -6 -62 -25 -134 -45 -146 -40 -8 3
-14 0 -14 -6 0 -6 -7 -11 -15 -11 -15 0 -25 -4 -72 -28 -13 -7 -30 -12 -39
-12 -22 0 -74 -38 -74 -55 0 -8 -7 -11 -20 -8 -11 3 -20 0 -20 -6 0 -6 -3 -10
-7 -9 -5 2 -9 -1 -10 -7 -1 -5 -12 -13 -25 -17 l-23 -6 24 -1 c17 -1 21 -5 17
-17 -3 -9 -6 -20 -6 -26 0 -5 -10 -8 -22 -6 -17 2 -24 11 -26 31 -2 15 -7 25
-12 22 -5 -3 -7 -12 -3 -20 3 -10 -2 -15 -16 -15 -12 0 -21 -6 -21 -16 0 -8
-4 -13 -9 -10 -5 3 -16 -5 -25 -19 -9 -14 -23 -25 -31 -25 -8 0 -15 -7 -15
-15 0 -9 -9 -15 -25 -15 -14 0 -37 -11 -51 -25 -14 -14 -29 -25 -33 -25 -17 0
-60 -41 -55 -53 2 -7 -9 -17 -26 -24 -16 -6 -30 -18 -30 -27 0 -9 -11 -18 -25
-22 -16 -4 -25 -13 -25 -25 0 -10 -7 -19 -15 -19 -8 0 -15 -7 -15 -15 0 -8 -7
-15 -15 -15 -8 0 -19 -9 -25 -20 -6 -11 -17 -20 -25 -20 -9 0 -12 -6 -8 -17 5
-13 2 -15 -11 -10 -20 8 -35 -21 -16 -33 15 -10 4 -30 -16 -30 -9 0 -12 5 -8
12 4 7 3 8 -5 4 -6 -4 -9 -11 -6 -16 3 -4 -2 -11 -10 -14 -8 -3 -18 -7 -22 -8
-4 -2 -20 -29 -36 -60 -20 -37 -34 -55 -43 -51 -15 6 -44 -51 -48 -96 -2 -16
-10 -27 -21 -30 -12 -2 -14 -5 -6 -10 18 -12 22 -68 5 -81 -10 -9 -14 -9 -14
-1 0 6 -6 11 -14 11 -8 0 -17 6 -20 13 -3 6 -4 3 -1 -9 3 -12 -1 -26 -9 -33
-8 -7 -12 -20 -9 -28 5 -12 3 -14 -7 -8 -10 6 -12 4 -7 -10 4 -9 2 -25 -5 -33
-9 -11 -10 -14 -1 -9 8 5 7 -1 -2 -20 -9 -17 -11 -29 -5 -31 6 -2 -1 -12 -14
-23 -16 -13 -24 -29 -24 -48 1 -15 -3 -34 -7 -41 -14 -22 -23 -79 -13 -82 6
-2 6 -13 0 -28 -5 -14 -6 -36 -2 -50 4 -14 2 -35 -3 -47 -7 -15 -7 -27 0 -35
5 -7 10 -35 11 -62 1 -27 6 -54 10 -60 5 -6 8 -21 7 -33 -1 -14 3 -19 12 -16
9 4 12 -2 11 -18 -3 -20 2 -24 22 -24 16 0 26 -7 28 -19 3 -13 0 -16 -10 -11
-7 3 -6 1 3 -7 37 -31 21 -78 -27 -78 -39 0 -65 -12 -54 -24 15 -20 -43 -58
-76 -50 -20 5 -26 2 -30 -14 -4 -14 -11 -18 -26 -14 -14 3 -19 1 -14 -6 4 -7
1 -12 -7 -12 -8 0 -14 -7 -13 -15 0 -9 -12 -23 -29 -33 -16 -9 -31 -20 -33
-24 -2 -5 -9 -8 -16 -8 -24 0 -66 -48 -66 -75 0 -15 -6 -25 -15 -25 -20 0 -35
-32 -28 -58 6 -25 -15 -30 -35 -10 -9 9 -12 6 -12 -15 0 -19 -7 -30 -22 -37
-13 -5 -19 -9 -14 -9 5 -1 1 -9 -8 -20 -9 -10 -16 -22 -15 -27 4 -24 -3 -34
-24 -34 -16 0 -28 -9 -37 -27 -7 -16 -13 -31 -12 -35 1 -4 -5 -5 -12 -2 -8 3
-19 -3 -26 -15 -6 -12 -7 -21 -1 -21 12 0 6 -53 -11 -82 -7 -13 -11 -28 -10
-35 3 -12 -16 -28 -33 -28 -14 0 -23 -47 -14 -72 6 -17 5 -23 -6 -23 -8 0 -15
-3 -16 -7 -3 -32 -11 -58 -20 -63 -5 -4 -7 -21 -4 -38 3 -18 1 -32 -4 -32 -14
0 -20 -63 -8 -79 9 -10 6 -18 -11 -31 -16 -13 -21 -28 -20 -54 1 -20 -4 -42
-10 -48 -16 -16 -15 -36 3 -55 9 -9 13 -23 10 -34 -5 -13 -2 -17 7 -14 17 7
41 -75 33 -108 -4 -15 1 -31 15 -47 11 -13 23 -35 27 -49 9 -35 82 -133 94
-126 5 4 10 1 10 -4 1 -6 2 -17 3 -23 0 -7 11 -14 24 -16 12 -2 22 -8 22 -13
0 -14 -33 -49 -41 -43 -5 2 -13 -6 -20 -18 -21 -39 -67 -77 -88 -71 -15 4 -22
-3 -32 -31 -7 -20 -16 -36 -20 -36 -4 0 -20 -5 -36 -12 -15 -6 -32 -10 -36 -9
-5 1 -6 -2 -3 -7 7 -11 -85 -102 -103 -102 -4 0 -8 -12 -9 -27 -1 -15 -5 -29
-10 -32 -15 -12 -32 -51 -22 -51 12 0 13 -10 1 -29 -7 -11 -13 -10 -33 3 l-25
17 4 -41 c4 -37 3 -40 -19 -40 -18 0 -20 -2 -9 -9 11 -7 12 -13 3 -23 -6 -8
-10 -29 -7 -46 3 -28 1 -32 -21 -32 -22 0 -30 -14 -25 -44 3 -16 -11 -46 -19
-41 -11 7 -25 -36 -14 -44 12 -8 16 -27 18 -90 1 -46 -2 -55 -20 -63 -18 -9
-20 -15 -13 -51 4 -27 3 -44 -3 -49 -14 -8 -17 -189 -4 -207 8 -10 4 -18 -13
-32 -18 -14 -19 -19 -7 -19 11 0 15 -7 12 -22 -1 -12 3 -29 11 -36 7 -7 13
-18 13 -24 0 -6 -3 -9 -6 -5 -3 3 -14 -2 -24 -10 -15 -13 -16 -20 -6 -46 8
-23 8 -31 -1 -34 -14 -5 -19 -65 -6 -61 5 1 18 -3 31 -10 17 -10 21 -19 18
-38 -3 -15 2 -37 10 -49 12 -18 13 -28 5 -44 -16 -28 -14 -36 15 -70 14 -17
23 -35 19 -41 -3 -5 3 -29 14 -52 11 -24 20 -38 21 -33 0 6 9 -3 19 -19 11
-17 18 -33 16 -36 -3 -4 7 -5 20 -2 20 3 27 -1 35 -22 7 -19 17 -26 35 -26 20
0 25 -5 25 -25 0 -25 15 -35 22 -14 3 8 10 6 21 -5 12 -12 27 -16 51 -12 30 5
35 3 38 -17 2 -18 10 -23 43 -25 22 -2 43 -9 47 -15 8 -14 30 -16 39 -4 8 12
39 -3 39 -19 0 -7 -11 -21 -25 -30 -14 -9 -23 -20 -20 -24 3 -4 -1 -13 -9 -19
-15 -13 -27 -63 -31 -128 -1 -23 -7 -48 -13 -56 -7 -8 -10 -16 -7 -19 9 -9 12
-67 4 -70 -4 -2 -11 -15 -14 -31 -6 -23 -5 -26 10 -21 15 6 17 2 13 -23 -3
-21 0 -29 8 -26 6 2 15 -10 19 -29 4 -18 9 -38 10 -45 2 -7 -3 -17 -11 -24
-17 -14 -17 -20 -2 -56 7 -15 13 -41 13 -58 1 -16 12 -52 24 -78 12 -27 20
-55 17 -62 -3 -8 2 -11 13 -8 18 5 36 -21 26 -37 -5 -8 24 -37 34 -32 9 3 8
-21 -1 -41 -5 -10 -5 -17 1 -17 5 0 11 6 14 13 3 7 9 1 15 -14 6 -16 21 -29
37 -33 23 -6 26 -10 20 -35 -5 -25 -1 -31 30 -50 20 -11 34 -25 31 -29 -10
-17 14 -36 46 -37 18 0 34 -6 34 -13 3 -25 5 -27 13 -14 7 12 14 11 40 -2 17
-9 31 -14 31 -10 0 4 6 1 14 -5 8 -7 13 -21 11 -31 -3 -15 4 -20 35 -25 22 -4
43 -4 49 -1 5 3 11 -4 15 -17 5 -22 58 -60 86 -61 8 -1 15 -8 15 -16 0 -10 8
-14 27 -12 16 2 39 -5 57 -19 37 -27 179 -35 224 -12 16 8 43 14 60 13 18 -1
37 -1 42 0 6 1 13 2 18 1 4 0 7 6 7 15 0 10 6 13 18 10 12 -4 28 2 44 17 15
14 39 24 58 25 18 0 37 7 41 14 7 10 9 10 9 0 0 -7 10 -26 22 -43 22 -29 22
-31 5 -41 -14 -8 -16 -13 -6 -24 6 -8 8 -14 3 -14 -5 0 -4 -4 1 -8 6 -4 21
-24 35 -44 14 -21 31 -38 38 -38 6 0 12 -4 12 -9 0 -4 13 -25 30 -46 28 -35
32 -64 8 -49 -6 4 -8 2 -4 -4 3 -5 0 -13 -6 -15 -10 -4 -10 -6 0 -6 16 -1 16
-31 -1 -31 -7 0 -26 -18 -43 -40 -16 -22 -33 -40 -37 -40 -5 0 -6 -4 -2 -9 3
-6 -4 -15 -15 -21 -11 -6 -20 -19 -20 -30 0 -10 -4 -21 -9 -24 -5 -3 -7 -15
-4 -26 4 -16 0 -20 -20 -20 -25 0 -48 -31 -28 -38 17 -6 13 -37 -9 -65 -13
-16 -27 -24 -36 -20 -9 3 -14 0 -12 -8 2 -8 -7 -15 -22 -17 -13 -2 -29 -11
-35 -19 -6 -8 -17 -13 -25 -11 -11 2 -14 -5 -12 -23 3 -28 -16 -43 -43 -33
-12 5 -15 -1 -14 -27 1 -19 -3 -56 -8 -82 -8 -35 -8 -50 1 -53 6 -2 12 -15 12
-29 1 -13 9 -31 18 -40 12 -12 15 -30 12 -71 -3 -49 -1 -58 25 -86 19 -22 37
-31 58 -31 30 0 47 -27 19 -27 -7 -1 3 -8 22 -16 19 -8 43 -13 52 -10 11 2 18
-1 18 -10 0 -8 5 -14 10 -14 6 0 10 7 10 15 0 8 7 15 15 15 8 0 17 0 20 0 3 0
6 -3 7 -7 0 -5 15 -15 32 -23 17 -8 34 -18 38 -24 3 -5 15 -10 25 -11 10 0 24
-4 31 -8 8 -5 10 -3 6 6 -4 12 8 14 63 12 37 -1 73 -3 78 -5 24 -6 43 1 48 19
4 17 17 22 96 35 13 2 28 11 33 20 5 9 17 16 28 16 10 0 22 9 25 20 3 11 10
20 15 20 4 0 10 10 13 21 4 14 11 20 21 16 18 -7 53 25 67 61 5 12 15 22 23
22 9 0 12 7 9 20 -4 16 -2 19 11 14 9 -4 16 -1 16 6 0 7 11 20 24 31 13 10 29
32 36 49 7 16 16 30 20 30 4 0 11 7 14 16 3 8 2 12 -4 9 -6 -3 -10 3 -10 14 0
14 9 23 25 27 14 3 25 10 25 16 0 5 4 7 9 4 12 -8 34 20 27 33 -4 5 3 13 14
16 15 5 20 13 18 28 -2 12 -9 21 -16 19 -21 -4 -13 38 13 66 20 21 22 28 10
30 -11 3 -12 8 -5 21 12 23 1 36 -14 15 -14 -18 -50 -8 -42 12 3 9 -4 16 -19
20 -28 7 -32 19 -10 28 8 3 15 10 15 17 0 6 -7 8 -15 5 -8 -3 -22 -9 -30 -12
-12 -5 -15 4 -15 50 0 53 1 56 25 56 14 0 25 5 25 10 0 6 9 10 20 10 11 0 20
5 20 11 0 5 5 7 10 4 6 -3 10 1 10 10 0 9 6 15 13 14 33 -4 68 2 62 11 -3 6 1
10 10 10 9 0 13 5 10 10 -10 17 4 47 25 53 16 4 20 0 20 -19 0 -28 7 -29 34
-9 28 21 34 19 28 -10 -2 -14 -9 -25 -14 -25 -5 0 5 -27 23 -60 17 -33 36 -60
40 -60 5 0 12 0 15 1 4 0 12 -10 18 -23 6 -12 26 -32 43 -44 l32 -21 -24 -23
c-13 -13 -22 -26 -20 -31 3 -4 -6 -16 -19 -27 -14 -10 -28 -32 -32 -48 -4 -16
-10 -33 -14 -39 -4 -5 -8 -17 -8 -25 -1 -8 -3 -26 -5 -40 -17 -102 -19 -111
-33 -106 -8 3 -14 -1 -14 -9 0 -8 5 -15 11 -15 7 0 5 -10 -5 -25 -9 -14 -14
-25 -10 -25 4 0 1 -7 -6 -15 -7 -9 -8 -15 -2 -15 24 0 -3 -62 -35 -82 -48 -29
-105 -90 -124 -132 -10 -23 -14 -42 -9 -44 12 -5 13 -32 1 -32 -12 0 -12 -76
0 -108 6 -15 12 -40 15 -57 10 -68 11 -70 37 -73 18 -2 32 -13 43 -34 8 -16
18 -28 21 -25 3 3 18 -10 35 -29 17 -19 45 -41 64 -50 19 -9 32 -20 29 -24 -3
-5 -1 -11 4 -14 5 -3 11 1 15 9 9 23 33 18 40 -9 4 -16 12 -23 23 -21 10 2 24
4 31 4 6 1 12 12 12 26 0 14 5 25 10 25 6 0 10 -5 10 -10 0 -6 21 -8 52 -6 59
5 97 -9 79 -27 -22 -22 -10 -26 27 -7 51 25 75 34 90 31 6 -1 12 4 12 11 0 16
68 61 80 53 13 -8 70 35 70 52 0 7 5 13 10 13 6 0 10 7 10 15 0 8 6 12 14 9
20 -8 28 12 11 26 -21 18 -19 29 10 40 14 5 25 14 25 20 0 5 7 10 15 10 8 0
15 4 15 8 0 5 11 14 25 20 13 6 33 29 45 52 11 22 24 40 29 40 14 0 51 83 51
114 0 21 7 30 33 41 27 12 28 14 10 15 -28 0 -30 20 -3 27 11 3 20 9 20 14 0
18 2 24 10 34 4 6 7 26 5 45 -3 39 3 62 15 55 4 -2 8 12 9 33 1 20 2 55 4 77
2 33 -1 40 -15 37 -10 -2 -18 3 -18 11 0 19 43 47 72 47 71 0 274 59 294 85 6
8 22 16 35 17 13 2 29 9 34 16 6 7 24 14 40 15 22 2 29 7 27 20 -2 11 4 17 17
17 11 0 23 5 26 10 4 6 10 8 15 5 5 -3 11 3 15 14 7 25 36 55 55 59 8 2 20 10
26 18 6 7 18 14 26 14 9 0 22 10 31 22 13 19 18 21 34 12 13 -8 25 -9 36 -2
11 6 17 5 17 -1 0 -10 64 -44 85 -45 9 -1 40 -24 70 -53 26 -25 137 -85 163
-88 15 -2 29 -4 32 -5 3 -2 8 -2 13 -1 4 0 7 -6 7 -14 0 -10 10 -15 27 -15 14
0 24 -3 20 -6 -12 -12 18 -32 35 -23 13 7 18 4 23 -12 4 -12 12 -18 21 -15 8
3 14 0 14 -8 0 -8 10 -11 29 -8 19 3 44 -5 73 -22 25 -14 54 -26 65 -26 12 0
23 -6 26 -14 3 -8 19 -15 34 -14 15 0 48 -8 73 -17 25 -10 70 -18 102 -20 31
-1 61 -6 66 -9 6 -3 21 -2 34 2 58 22 78 23 78 5 0 -11 3 -14 8 -7 10 15 40
25 44 14 5 -14 42 -16 44 -2 3 23 4 24 17 14 18 -15 57 -10 89 11 27 19 84 29
151 28 26 0 36 3 31 11 -5 7 -2 9 8 5 9 -3 19 -3 23 1 3 3 25 7 48 8 55 3 91
9 108 19 7 5 23 10 35 11 25 3 73 31 90 53 9 11 13 11 19 1 6 -9 9 -9 15 0 4
7 23 15 41 19 25 5 33 12 31 25 -3 13 1 16 16 12 19 -6 45 13 84 62 10 12 26
22 36 22 10 0 28 11 40 25 13 14 28 22 37 19 9 -4 19 4 27 23 13 29 38 54 48
48 3 -2 14 9 24 24 10 15 32 33 49 41 28 12 32 12 45 -8 8 -13 25 -22 39 -22
14 0 21 -4 18 -10 -3 -5 0 -10 9 -10 8 0 16 -5 18 -12 2 -6 25 -11 51 -12 34
0 46 -4 43 -12 -3 -8 2 -11 16 -9 11 3 33 -5 49 -15 25 -18 28 -19 31 -3 3 15
5 15 22 -2 15 -15 32 -19 79 -18 34 1 67 -3 74 -9 8 -6 28 -11 45 -10 17 0 37
-6 45 -14 15 -15 62 -10 74 8 3 5 12 4 20 -4 16 -15 32 -18 119 -19 126 -2
150 1 148 14 -2 8 9 11 35 9 27 -3 37 0 37 10 0 10 14 15 48 15 65 1 100 10
125 33 11 11 26 20 31 21 28 2 49 9 69 22 12 8 27 15 32 16 6 1 19 8 30 15 11
7 34 16 50 20 41 10 115 48 115 58 0 5 13 14 29 19 25 9 73 59 56 59 -3 0 3 8
13 18 11 12 21 16 29 10 7 -6 14 -2 18 12 4 13 12 19 21 16 8 -3 14 -1 14 4 0
6 7 10 16 10 10 0 14 6 10 15 -3 10 6 20 30 31 19 9 32 19 29 22 -2 3 0 11 6
19 6 7 8 13 5 13 -4 0 1 13 11 30 9 16 22 30 28 30 6 0 19 16 28 35 9 19 23
35 32 35 8 0 15 3 16 8 0 4 2 23 3 42 2 19 8 45 14 57 7 12 12 35 12 51 0 16
3 32 8 36 4 4 7 13 7 19 0 7 12 11 30 9 48 -5 130 -3 161 3 16 4 36 8 45 9 9
1 28 10 43 19 14 10 26 15 26 11 0 -4 7 -1 15 6 12 10 15 9 15 -4 0 -10 4 -15
9 -11 5 3 12 -4 16 -15 3 -11 11 -20 17 -20 9 0 51 -46 54 -60 9 -34 20 -52
40 -65 13 -8 24 -22 24 -29 0 -8 4 -16 9 -18 5 -1 12 -15 16 -29 5 -21 0 -34
-25 -63 -18 -20 -29 -36 -25 -36 4 0 0 -11 -9 -24 -9 -14 -13 -31 -10 -39 3
-8 1 -18 -5 -21 -7 -5 -7 -15 -1 -31 5 -14 7 -25 3 -25 -3 0 2 -9 12 -20 16
-18 16 -20 1 -26 -20 -8 -10 -26 12 -22 17 3 19 -5 11 -47 -2 -12 1 -19 8 -18
7 2 10 -4 6 -13 -10 -26 41 -64 100 -74 39 -6 54 -5 60 5 9 17 43 12 39 -6 -3
-10 2 -9 15 3 16 14 20 14 31 2 8 -8 22 -12 32 -9 11 3 40 7 65 9 26 1 50 8
54 15 4 7 12 11 17 10 18 -5 80 14 106 32 14 11 33 19 41 19 8 0 18 11 21 25
4 16 13 25 26 25 11 0 20 5 20 10 0 6 7 10 15 10 7 0 18 6 22 14 4 7 28 23 53
34 91 43 100 53 94 99 -3 24 1 38 16 50 12 11 22 36 26 65 4 26 10 48 14 48 8
0 7 50 -2 66 -2 5 -5 22 -6 38 -1 17 -6 32 -11 35 -4 3 -8 24 -7 46 2 45 -11
94 -31 113 -7 7 -13 24 -13 37 0 13 -4 27 -10 30 -5 3 -10 20 -10 37 0 17 -3
28 -7 25 -3 -4 -15 7 -25 23 -21 35 -23 44 -7 34 7 -4 9 2 7 17 -2 13 -8 23
-14 22 -5 -1 -11 7 -11 18 -3 30 -29 50 -56 43 -29 -7 -44 10 -27 31 7 9 8 15
1 20 -19 11 47 115 82 128 9 3 17 2 17 -3 0 -6 3 -9 8 -8 4 1 16 -3 27 -8 11
-6 62 -10 118 -8 79 2 104 7 132 24 19 12 35 17 35 11 0 -16 72 -5 123 19 21
10 30 11 39 2 7 -7 22 -12 34 -12 22 0 46 -20 43 -36 -4 -26 3 -53 20 -71 11
-11 19 -28 18 -38 -1 -10 5 -19 13 -20 8 -1 36 -10 62 -19 35 -11 55 -13 74
-6 14 6 30 8 35 4 5 -3 13 6 19 20 8 22 14 25 42 20 18 -3 43 -10 55 -16 24
-12 58 6 47 24 -3 5 0 15 6 23 9 11 17 12 33 3 16 -8 22 -8 25 1 2 7 13 20 23
30 11 10 18 28 17 42 -2 15 2 23 10 21 7 -1 22 7 34 18 12 11 19 20 15 20 -4
0 -1 12 6 28 8 15 14 43 13 62 -1 19 1 42 5 50 19 38 28 80 17 80 -6 0 -8 12
-4 31 3 18 2 37 -3 43 -5 6 -11 35 -15 64 -11 93 -18 127 -28 139 -5 6 -7 34
-5 62 4 41 1 51 -13 56 -9 3 -23 18 -31 33 -16 31 -65 82 -79 82 -6 0 -10 7
-10 15 0 10 -10 15 -29 15 -16 0 -36 7 -45 15 -10 10 -42 17 -91 21 -62 4 -76
2 -81 -10 -3 -9 -16 -15 -29 -14 -15 2 -21 7 -17 17 4 10 1 13 -11 8 -9 -3
-17 -2 -17 3 0 5 -24 8 -52 7 -42 -2 -53 -5 -53 -19 0 -24 -10 -30 -52 -34
-28 -3 -34 -2 -23 6 11 7 12 10 2 10 -8 0 -16 -9 -19 -20 -3 -11 -12 -20 -19
-20 -8 0 -14 -4 -14 -9 0 -4 -37 -20 -83 -35 -87 -27 -108 -31 -105 -18 3 13
-16 47 -37 65 -15 15 -16 18 -3 13 9 -3 18 -1 20 4 2 5 19 5 38 1 24 -5 44 -3
64 6 15 8 42 16 60 18 17 2 33 4 36 5 3 1 10 3 16 4 6 0 26 8 45 17 19 9 62
29 96 45 35 16 63 32 63 37 0 4 6 7 13 7 7 0 29 9 50 20 20 11 37 18 37 16 0
-3 17 11 38 30 20 19 49 42 64 51 15 9 29 27 33 40 8 33 37 66 46 51 4 -6 10
3 14 21 4 17 11 29 16 25 5 -3 9 0 9 5 0 6 7 11 15 11 18 0 20 27 3 33 -8 2 0
11 17 20 17 9 26 16 21 17 -5 0 -4 6 2 13 5 6 12 31 14 53 3 23 12 52 22 65 9
13 16 35 16 49 0 14 5 31 11 37 6 6 12 29 14 51 2 22 8 48 13 58 9 17 24 109
26 159 0 11 -3 35 -7 54 -5 26 -4 32 7 28 11 -5 13 0 6 24 -5 16 -5 27 -1 25
4 -3 12 4 19 14 9 14 8 19 -3 24 -12 4 -12 10 -1 37 11 26 11 38 1 63 -7 17
-10 42 -8 56 2 14 4 41 4 60 0 19 5 40 11 47 5 7 7 21 3 30 -4 10 -9 70 -11
133 -4 127 -4 122 -28 203 -10 33 -23 57 -31 57 -7 0 -17 15 -20 33 -4 17 -15
40 -24 51 -9 10 -14 19 -12 20 2 0 1 11 -3 24 -6 19 -10 21 -22 11 -10 -8 -14
-8 -15 0 -5 42 -20 61 -49 61 -16 0 -35 7 -44 15 -8 8 -22 15 -30 15 -9 0 -16
5 -16 10 0 6 5 10 11 10 6 0 9 6 6 14 -3 8 -2 16 2 18 13 5 77 101 91 136 7
17 16 32 20 32 4 0 6 11 5 25 -2 14 0 23 4 20 12 -7 30 62 26 95 -2 17 0 30 5
30 6 0 10 9 10 21 0 11 5 30 11 41 8 16 8 22 -2 29 -10 6 -10 10 0 23 7 9 11
23 7 31 -3 8 0 15 7 15 8 0 6 4 -3 10 -8 5 -11 10 -6 10 5 0 4 6 -1 13 -15 18
-22 56 -12 62 5 4 6 23 4 45 -3 21 -1 41 4 45 12 7 4 59 -10 63 -5 2 -9 13 -9
23 0 11 3 18 8 16 6 -4 9 48 2 56 -2 2 -6 25 -14 69 -8 49 -27 96 -40 101 -8
3 -12 17 -11 31 2 17 -2 26 -11 26 -8 0 -13 9 -12 23 2 31 -21 107 -32 107 -5
0 -13 12 -16 27 -4 15 -13 34 -21 41 -7 8 -10 18 -7 24 4 6 1 14 -5 18 -7 4
-13 15 -15 24 -1 10 -7 21 -14 25 -6 3 -13 19 -16 35 -3 16 -12 36 -21 46 -8
9 -15 21 -15 27 0 5 -9 18 -20 28 -11 10 -17 21 -14 26 7 12 -86 131 -107 136
-9 3 -24 22 -34 42 -18 42 -97 121 -119 121 -7 0 -19 7 -26 15 -7 9 -19 14
-27 11 -8 -3 -13 2 -13 15 0 15 -5 19 -18 14 -12 -3 -28 3 -43 18 -29 29 -52
38 -104 44 -22 2 -44 8 -50 13 -21 17 -168 15 -187 -3 -16 -15 -98 -18 -98 -3
0 6 9 24 19 39 22 35 18 60 -15 77 -29 16 -31 30 -4 30 24 0 25 6 5 26 -8 9
-15 24 -15 35 0 11 -4 17 -10 14 -10 -6 -14 12 -10 52 2 26 -30 84 -42 77 -4
-3 -8 1 -8 9 0 7 -9 23 -21 35 -11 12 -17 27 -13 33 4 7 0 9 -13 5 -17 -5 -19
-2 -15 29 3 25 0 36 -12 41 -9 3 -13 10 -10 15 3 5 0 9 -5 9 -6 0 -10 6 -8 12
1 7 -8 14 -20 16 -24 4 -33 32 -10 32 8 0 8 3 1 8 -6 4 -13 15 -17 24 -4 11
-13 15 -26 11 -15 -4 -20 1 -23 18 -2 13 -13 29 -25 35 -13 6 -20 14 -16 17 3
4 -1 7 -9 7 -9 0 -18 6 -21 14 -3 8 -26 24 -52 35 -25 11 -48 27 -51 35 -3 8
-18 18 -34 21 -15 3 -30 14 -33 24 -3 12 -15 18 -38 19 -18 0 -38 8 -45 16 -6
9 -14 13 -17 9 -4 -3 -9 1 -13 10 -3 9 -19 19 -35 22 -16 4 -36 13 -44 22 -9
8 -22 16 -29 17 -8 1 -21 8 -30 16 -12 9 -20 10 -28 2 -7 -7 -17 -3 -33 14
-15 16 -26 21 -30 14 -5 -8 -11 -8 -21 1 -7 6 -11 15 -8 20 3 5 0 9 -6 9 -7 0
-25 9 -41 21 -20 14 -38 19 -54 15 -14 -4 -25 -2 -25 3 0 6 -6 8 -14 5 -8 -3
-17 -1 -20 4 -3 5 -17 8 -31 7 -14 -2 -25 1 -25 7 0 5 -6 8 -12 5 -7 -2 -25 2
-40 9 -15 8 -28 10 -30 4 -2 -5 -17 -6 -38 -1 -32 7 -151 7 -208 -1 -12 -2
-27 -9 -31 -17 -5 -8 -18 -12 -30 -8 -13 3 -24 -1 -30 -10 -5 -9 -21 -17 -37
-19 -16 -2 -39 -6 -51 -9 -15 -3 -23 -1 -24 7 -2 49 -11 84 -23 93 -7 6 -17
25 -20 43 -4 17 -13 35 -20 39 -6 5 -19 19 -28 33 -23 36 -114 130 -125 130
-5 0 -20 11 -33 25 -13 14 -30 25 -38 25 -9 0 -12 3 -8 7 4 4 -8 15 -26 25
-55 29 -123 61 -130 62 -4 1 -13 7 -19 14 -7 6 -20 12 -29 12 -8 0 -24 6 -35
13 -11 8 -35 13 -53 11 -25 -1 -36 4 -52 26 -14 20 -26 27 -40 23 -13 -4 -26
1 -34 12 -8 12 -21 16 -34 13 -12 -3 -26 0 -32 7 -6 7 -19 11 -30 8 -11 -3
-31 4 -46 16 -15 12 -44 24 -66 27 -21 4 -38 10 -38 14 0 8 -16 10 -85 11 -27
0 -52 5 -56 10 -3 6 -28 12 -55 14 -27 2 -66 8 -88 14 -27 7 -48 6 -75 -3 -20
-8 -45 -10 -57 -6 -35 13 -99 7 -96 -9 2 -11 -3 -10 -23 3 -22 14 -31 15 -68
5 -63 -18 -71 -19 -78 -7 -5 8 -17 7 -40 -5 -33 -16 -54 -14 -43 4 3 6 -8 8
-28 5 -127 -20 -166 -28 -189 -41 -17 -10 -36 -12 -55 -7 -32 9 -40 9 -66 -1
-10 -4 -26 -10 -35 -14 -10 -3 -22 -5 -27 -4 -5 1 -4 -5 4 -13 7 -9 11 -16 9
-17 -41 -9 -54 -3 -50 24 2 11 -5 9 -44 -13 -20 -11 -41 -18 -47 -14 -5 3 -22
-2 -36 -13 -15 -11 -57 -34 -94 -53 -37 -18 -79 -46 -93 -61 -13 -16 -31 -26
-38 -23 -8 3 -18 -6 -25 -20 -6 -13 -20 -27 -31 -31 -11 -3 -23 -15 -26 -26
-4 -10 -11 -19 -16 -19 -16 0 -49 40 -49 60 0 11 -4 20 -8 20 -5 0 -17 16 -27
35 -11 19 -28 35 -39 37 -20 3 -57 57 -49 71 3 4 -9 12 -26 18 -17 6 -31 16
-31 22 -1 16 -39 42 -72 51 -16 3 -28 13 -28 21 0 18 -36 34 -106 49 -7 1 -19
8 -28 15 -9 7 -16 10 -16 6 0 -4 -7 -2 -15 5 -8 7 -12 16 -9 21 3 5 -6 5 -20
-1 -21 -7 -26 -6 -26 5 0 8 -5 15 -11 15 -5 0 -7 -5 -3 -12 5 -8 0 -9 -17 -5
-13 4 -27 7 -31 7 -5 0 -8 7 -8 16 0 8 -4 13 -9 9 -6 -3 -14 2 -19 12 -9 15
-12 15 -28 3 -10 -8 -15 -10 -12 -5 4 6 -2 16 -13 23 -15 10 -19 10 -19 0 0
-7 -9 -2 -20 12 -11 14 -20 22 -20 18 0 -4 -12 -1 -27 7 -18 9 -32 11 -44 4
-11 -6 -20 -6 -24 1 -3 5 -30 8 -60 7 -39 -1 -55 2 -55 11 0 6 -4 12 -10 12
-5 0 -9 -5 -7 -11 1 -6 -4 -14 -12 -17 -8 -2 -11 0 -7 6 9 15 -5 20 -34 13z"/>
<path d="M12090 5659 c0 -5 5 -7 10 -4 6 3 10 8 10 11 0 2 -4 4 -10 4 -5 0
-10 -5 -10 -11z"/>
<path d="M3960 3110 c0 -5 5 -10 10 -10 6 0 10 5 10 10 0 6 -4 10 -10 10 -5 0
-10 -4 -10 -10z"/>
<path d="M2870 2951 c0 -6 4 -13 10 -16 6 -3 7 1 4 9 -7 18 -14 21 -14 7z"/>
<path d="M4505 2270 c-3 -5 -1 -10 4 -10 6 0 11 5 11 10 0 6 -2 10 -4 10 -3 0
-8 -4 -11 -10z"/>
<path d="M4455 2260 c-19 -8 -19 -9 2 -9 12 -1 25 4 28 9 7 12 -2 12 -30 0z"/>
</g>
</svg>
